<?xml version="1.0" standalone="no"?>
<!DOCTYPE svg PUBLIC "-//W3C//DTD SVG 20010904//EN"
 "http://www.w3.org/TR/2001/REC-SVG-20010904/DTD/svg10.dtd">
<svg version="1.0" xmlns="http://www.w3.org/2000/svg"
 width="2353.000000pt" height="2353.000000pt" viewBox="0 0 2353.000000 2353.000000"
 preserveAspectRatio="xMidYMid meet">
<metadata>
Created by potrace 1.16, written by Peter Selinger 2001-2019
</metadata>
<g transform="translate(0.000000,2353.000000) scale(0.100000,-0.100000)"
fill="#FF9F40" stroke="none">
<path d="M11525 22924 c-587 -25 -1106 -80 -1682 -179 -1308 -225 -2464 -634
-3603 -1277 -1026 -579 -1837 -1226 -2736 -2183 -130 -139 -317 -347 -381
-425 -12 -14 -57 -68 -100 -120 -197 -237 -509 -662 -658 -898 -268 -422 -418
-681 -597 -1032 -81 -161 -258 -532 -258 -543 0 -3 -13 -34 -29 -69 -99 -213
-275 -679 -385 -1018 -295 -906 -464 -1786 -538 -2805 -20 -279 -17 -1227 5
-1520 37 -490 92 -899 183 -1355 129 -650 326 -1310 582 -1945 96 -237 115
-282 208 -482 549 -1187 1294 -2270 2190 -3183 195 -200 384 -384 503 -490 52
-47 99 -90 105 -95 6 -6 73 -63 148 -128 1077 -924 2346 -1650 3663 -2097 149
-50 299 -100 335 -110 36 -10 144 -41 240 -69 1583 -452 3338 -534 5009 -231
360 65 617 124 1026 234 803 217 1717 596 2495 1034 1090 613 2122 1448 2869
2322 521 610 711 853 978 1255 105 157 321 510 395 645 14 25 58 104 98 175
72 129 299 575 360 710 527 1155 844 2317 970 3545 42 413 52 683 47 1205 -6
532 -20 771 -73 1200 -158 1293 -530 2525 -1129 3740 -329 666 -668 1211
-1114 1785 -107 137 -384 472 -452 545 -21 22 -47 51 -59 65 -245 286 -827
857 -1173 1153 -1018 871 -2306 1592 -3652 2047 -398 134 -493 163 -844 256
-230 60 -707 162 -911 194 -30 5 -113 17 -185 29 -470 73 -910 108 -1440 114
-181 3 -366 3 -410 1z"/>
</g>
</svg>
