<?xml version="1.0" standalone="no"?>
<!DOCTYPE svg PUBLIC "-//W3C//DTD SVG 20010904//EN"
 "http://www.w3.org/TR/2001/REC-SVG-20010904/DTD/svg10.dtd">
<svg version="1.0" xmlns="http://www.w3.org/2000/svg"
 width="298.000000pt" height="169.000000pt" viewBox="0 0 298.000000 169.000000"
 preserveAspectRatio="xMidYMid meet">
<metadata>
Created by potrace 1.16, written by Peter Selinger 2001-2019
</metadata>
<g transform="translate(0.000000,169.000000) scale(0.100000,-0.100000)"
fill="#6949D7" stroke="none">
<path d="M1352 1359 c-91 -16 -238 -69 -319 -115 -222 -127 -394 -314 -380
-415 11 -82 143 -228 303 -335 97 -65 183 -105 301 -141 78 -23 104 -26 233
-26 129 0 155 3 233 26 186 57 340 149 472 282 97 97 140 170 132 226 -11 82
-143 228 -303 335 -164 110 -325 163 -504 169 -63 2 -139 0 -168 -6z m298 -64
c140 -30 305 -110 418 -204 83 -69 153 -145 184 -198 l27 -47 -26 -47 c-29
-55 -141 -169 -228 -234 -88 -65 -230 -132 -341 -160 -299 -76 -619 28 -869
284 -66 67 -105 125 -105 157 0 49 118 184 245 279 86 64 230 132 337 160 111
29 251 33 358 10z"/>
<path d="M1440 1169 c-106 -16 -188 -74 -241 -171 -32 -58 -34 -69 -34 -153 0
-84 2 -95 34 -153 61 -112 163 -173 290 -173 128 -1 231 61 292 173 32 59 34
69 34 153 0 75 -4 98 -25 140 -64 131 -206 205 -350 184z m156 -74 c50 -21
115 -85 140 -140 63 -133 -5 -303 -145 -363 -47 -20 -155 -20 -202 0 -99 43
-169 148 -169 253 0 93 41 165 133 235 51 38 170 46 243 15z"/>
</g>
</svg>
