<?xml version="1.0" standalone="no"?>
<!DOCTYPE svg PUBLIC "-//W3C//DTD SVG 20010904//EN"
 "http://www.w3.org/TR/2001/REC-SVG-20010904/DTD/svg10.dtd">
<svg version="1.0" xmlns="http://www.w3.org/2000/svg"
 width="920.000000pt" height="615.000000pt" viewBox="0 0 920.000000 615.000000"
 preserveAspectRatio="xMidYMid meet">
<metadata>
Created by potrace 1.16, written by Peter Selinger 2001-2019
</metadata>
<g transform="translate(0.000000,615.000000) scale(0.100000,-0.100000)"
fill="#6949D7" stroke="none">
<path d="M1218 4613 c-21 -5 -20 0 -18 -128 2 -136 26 -363 55 -520 207 -1124
965 -2088 2010 -2558 617 -277 1358 -372 2007 -257 375 67 650 156 983 320
422 208 773 479 1084 835 377 433 654 979 780 1538 54 243 97 640 72 677 -8
11 -42 16 -153 20 -196 7 -425 6 -433 -2 -4 -3 -10 -64 -15 -135 -44 -655
-310 -1275 -755 -1759 -488 -531 -1164 -861 -1890 -925 -270 -23 -665 5 -920
66 -445 107 -875 329 -1220 630 -38 34 -85 75 -103 91 -107 93 -317 350 -436
531 -223 342 -398 830 -441 1233 -11 106 -45 331 -51 341 -5 9 -523 11 -556 2z"/>
</g>
</svg>
